<svg xmlns="http://www.w3.org/2000/svg" xmlns:xlink="http://www.w3.org/1999/xlink" width="500" zoomAndPan="magnify" viewBox="0 0 375 374.999991" height="500" preserveAspectRatio="xMidYMid meet" version="1.0"><defs><clipPath id="69a529fec8"><path d="M 39.265625 45.015625 L 298.765625 45.015625 L 298.765625 304.515625 L 39.265625 304.515625 Z M 39.265625 45.015625 " clip-rule="nonzero"/></clipPath><clipPath id="14ded12704"><path d="M 184.996094 223.488281 L 196.71875 223.488281 L 196.71875 235.210938 L 184.996094 235.210938 Z M 184.996094 223.488281 " clip-rule="nonzero"/></clipPath><clipPath id="fe5e5164c2"><path d="M 190.855469 223.488281 C 187.621094 223.488281 184.996094 226.109375 184.996094 229.347656 C 184.996094 232.585938 187.621094 235.210938 190.855469 235.210938 C 194.09375 235.210938 196.71875 232.585938 196.71875 229.347656 C 196.71875 226.109375 194.09375 223.488281 190.855469 223.488281 Z M 190.855469 223.488281 " clip-rule="nonzero"/></clipPath><clipPath id="2ffddd6525"><path d="M 163.183594 206.039062 L 174.90625 206.039062 L 174.90625 217.761719 L 163.183594 217.761719 Z M 163.183594 206.039062 " clip-rule="nonzero"/></clipPath><clipPath id="867e60f219"><path d="M 169.046875 206.039062 C 165.808594 206.039062 163.183594 208.664062 163.183594 211.902344 C 163.183594 215.140625 165.808594 217.761719 169.046875 217.761719 C 172.285156 217.761719 174.90625 215.140625 174.90625 211.902344 C 174.90625 208.664062 172.285156 206.039062 169.046875 206.039062 Z M 169.046875 206.039062 " clip-rule="nonzero"/></clipPath><clipPath id="86a42af51e"><path d="M 87.703125 222.886719 L 99.425781 222.886719 L 99.425781 234.609375 L 87.703125 234.609375 Z M 87.703125 222.886719 " clip-rule="nonzero"/></clipPath><clipPath id="4b01a0dfa0"><path d="M 93.566406 222.886719 C 90.328125 222.886719 87.703125 225.511719 87.703125 228.75 C 87.703125 231.984375 90.328125 234.609375 93.566406 234.609375 C 96.800781 234.609375 99.425781 231.984375 99.425781 228.75 C 99.425781 225.511719 96.800781 222.886719 93.566406 222.886719 Z M 93.566406 222.886719 " clip-rule="nonzero"/></clipPath><clipPath id="ff96e354b0"><path d="M 150.027344 153.613281 L 161.75 153.613281 L 161.75 165.335938 L 150.027344 165.335938 Z M 150.027344 153.613281 " clip-rule="nonzero"/></clipPath><clipPath id="378fed769d"><path d="M 155.890625 153.613281 C 152.652344 153.613281 150.027344 156.238281 150.027344 159.476562 C 150.027344 162.710938 152.652344 165.335938 155.890625 165.335938 C 159.125 165.335938 161.75 162.710938 161.75 159.476562 C 161.75 156.238281 159.125 153.613281 155.890625 153.613281 Z M 155.890625 153.613281 " clip-rule="nonzero"/></clipPath><clipPath id="bd22d977ab"><path d="M 121.035156 214.289062 L 132.757812 214.289062 L 132.757812 226.011719 L 121.035156 226.011719 Z M 121.035156 214.289062 " clip-rule="nonzero"/></clipPath><clipPath id="8a375066b3"><path d="M 126.898438 214.289062 C 123.660156 214.289062 121.035156 216.914062 121.035156 220.152344 C 121.035156 223.390625 123.660156 226.011719 126.898438 226.011719 C 130.132812 226.011719 132.757812 223.390625 132.757812 220.152344 C 132.757812 216.914062 130.132812 214.289062 126.898438 214.289062 Z M 126.898438 214.289062 " clip-rule="nonzero"/></clipPath><clipPath id="f2105036ef"><path d="M 189.507812 163.074219 L 201.230469 163.074219 L 201.230469 174.796875 L 189.507812 174.796875 Z M 189.507812 163.074219 " clip-rule="nonzero"/></clipPath><clipPath id="d63a18b23b"><path d="M 195.367188 163.074219 C 192.128906 163.074219 189.507812 165.699219 189.507812 168.9375 C 189.507812 172.171875 192.128906 174.796875 195.367188 174.796875 C 198.605469 174.796875 201.230469 172.171875 201.230469 168.9375 C 201.230469 165.699219 198.605469 163.074219 195.367188 163.074219 Z M 195.367188 163.074219 " clip-rule="nonzero"/></clipPath><clipPath id="21f13c3974"><path d="M 218.753906 193.074219 L 230.476562 193.074219 L 230.476562 204.796875 L 218.753906 204.796875 Z M 218.753906 193.074219 " clip-rule="nonzero"/></clipPath><clipPath id="7f33de4e7c"><path d="M 224.613281 193.074219 C 221.375 193.074219 218.753906 195.699219 218.753906 198.9375 C 218.753906 202.171875 221.375 204.796875 224.613281 204.796875 C 227.851562 204.796875 230.476562 202.171875 230.476562 198.9375 C 230.476562 195.699219 227.851562 193.074219 224.613281 193.074219 Z M 224.613281 193.074219 " clip-rule="nonzero"/></clipPath><clipPath id="6b83eba11b"><path d="M 148.742188 225.242188 L 160.464844 225.242188 L 160.464844 236.964844 L 148.742188 236.964844 Z M 148.742188 225.242188 " clip-rule="nonzero"/></clipPath><clipPath id="aef740ef32"><path d="M 154.601562 225.242188 C 151.363281 225.242188 148.742188 227.867188 148.742188 231.101562 C 148.742188 234.339844 151.363281 236.964844 154.601562 236.964844 C 157.839844 236.964844 160.464844 234.339844 160.464844 231.101562 C 160.464844 227.867188 157.839844 225.242188 154.601562 225.242188 Z M 154.601562 225.242188 " clip-rule="nonzero"/></clipPath><clipPath id="de3b1f8311"><path d="M 146.660156 250.742188 L 158.382812 250.742188 L 158.382812 262.464844 L 146.660156 262.464844 Z M 146.660156 250.742188 " clip-rule="nonzero"/></clipPath><clipPath id="b79e4fef33"><path d="M 152.519531 250.742188 C 149.28125 250.742188 146.660156 253.367188 146.660156 256.601562 C 146.660156 259.839844 149.28125 262.464844 152.519531 262.464844 C 155.757812 262.464844 158.382812 259.839844 158.382812 256.601562 C 158.382812 253.367188 155.757812 250.742188 152.519531 250.742188 Z M 152.519531 250.742188 " clip-rule="nonzero"/></clipPath><clipPath id="eb906e50f9"><path d="M 179.132812 253.808594 L 190.855469 253.808594 L 190.855469 265.53125 L 179.132812 265.53125 Z M 179.132812 253.808594 " clip-rule="nonzero"/></clipPath><clipPath id="4aae9f525f"><path d="M 184.996094 253.808594 C 181.757812 253.808594 179.132812 256.433594 179.132812 259.671875 C 179.132812 262.90625 181.757812 265.53125 184.996094 265.53125 C 188.230469 265.53125 190.855469 262.90625 190.855469 259.671875 C 190.855469 256.433594 188.230469 253.808594 184.996094 253.808594 Z M 184.996094 253.808594 " clip-rule="nonzero"/></clipPath><clipPath id="a1318f0dda"><path d="M 224.457031 250.742188 L 236.179688 250.742188 L 236.179688 262.464844 L 224.457031 262.464844 Z M 224.457031 250.742188 " clip-rule="nonzero"/></clipPath><clipPath id="fac47c5231"><path d="M 230.320312 250.742188 C 227.082031 250.742188 224.457031 253.367188 224.457031 256.601562 C 224.457031 259.839844 227.082031 262.464844 230.320312 262.464844 C 233.558594 262.464844 236.179688 259.839844 236.179688 256.601562 C 236.179688 253.367188 233.558594 250.742188 230.320312 250.742188 Z M 230.320312 250.742188 " clip-rule="nonzero"/></clipPath><clipPath id="bf897195fc"><path d="M 102.683594 252.285156 L 114.40625 252.285156 L 114.40625 264.007812 L 102.683594 264.007812 Z M 102.683594 252.285156 " clip-rule="nonzero"/></clipPath><clipPath id="7fc9b39c58"><path d="M 108.542969 252.285156 C 105.308594 252.285156 102.683594 254.910156 102.683594 258.144531 C 102.683594 261.382812 105.308594 264.007812 108.542969 264.007812 C 111.78125 264.007812 114.40625 261.382812 114.40625 258.144531 C 114.40625 254.910156 111.78125 252.285156 108.542969 252.285156 Z M 108.542969 252.285156 " clip-rule="nonzero"/></clipPath><clipPath id="9d2e7ea46b"><path d="M 236.179688 225.351562 L 247.902344 225.351562 L 247.902344 237.074219 L 236.179688 237.074219 Z M 236.179688 225.351562 " clip-rule="nonzero"/></clipPath><clipPath id="093f5f1bce"><path d="M 242.042969 225.351562 C 238.804688 225.351562 236.179688 227.976562 236.179688 231.210938 C 236.179688 234.449219 238.804688 237.074219 242.042969 237.074219 C 245.28125 237.074219 247.902344 234.449219 247.902344 231.210938 C 247.902344 227.976562 245.28125 225.351562 242.042969 225.351562 Z M 242.042969 225.351562 " clip-rule="nonzero"/></clipPath><clipPath id="ccb50d972e"><path d="M 120.628906 176.898438 L 132.351562 176.898438 L 132.351562 188.621094 L 120.628906 188.621094 Z M 120.628906 176.898438 " clip-rule="nonzero"/></clipPath><clipPath id="49d3ca3ab8"><path d="M 126.488281 176.898438 C 123.25 176.898438 120.628906 179.519531 120.628906 182.757812 C 120.628906 185.996094 123.25 188.621094 126.488281 188.621094 C 129.726562 188.621094 132.351562 185.996094 132.351562 182.757812 C 132.351562 179.519531 129.726562 176.898438 126.488281 176.898438 Z M 126.488281 176.898438 " clip-rule="nonzero"/></clipPath><clipPath id="2d48c07334"><path d="M 105.464844 193.074219 L 117.1875 193.074219 L 117.1875 204.796875 L 105.464844 204.796875 Z M 105.464844 193.074219 " clip-rule="nonzero"/></clipPath><clipPath id="7c2011b9bb"><path d="M 111.324219 193.074219 C 108.085938 193.074219 105.464844 195.699219 105.464844 198.9375 C 105.464844 202.171875 108.085938 204.796875 111.324219 204.796875 C 114.5625 204.796875 117.1875 202.171875 117.1875 198.9375 C 117.1875 195.699219 114.5625 193.074219 111.324219 193.074219 Z M 111.324219 193.074219 " clip-rule="nonzero"/></clipPath></defs><g clip-path="url(#69a529fec8)"><path fill="#ffffff" d="M 298.765625 174.765625 C 298.765625 176.890625 298.714844 179.011719 298.609375 181.132812 C 298.503906 183.253906 298.347656 185.371094 298.140625 187.484375 C 297.933594 189.597656 297.671875 191.703125 297.363281 193.804688 C 297.050781 195.90625 296.6875 197.996094 296.273438 200.078125 C 295.859375 202.164062 295.394531 204.234375 294.878906 206.292969 C 294.363281 208.351562 293.796875 210.398438 293.179688 212.429688 C 292.5625 214.464844 291.898438 216.480469 291.179688 218.476562 C 290.464844 220.476562 289.703125 222.457031 288.890625 224.421875 C 288.078125 226.382812 287.214844 228.324219 286.308594 230.242188 C 285.402344 232.160156 284.445312 234.058594 283.445312 235.929688 C 282.445312 237.804688 281.398438 239.648438 280.304688 241.472656 C 279.214844 243.292969 278.078125 245.085938 276.898438 246.851562 C 275.71875 248.617188 274.496094 250.351562 273.230469 252.058594 C 271.96875 253.765625 270.660156 255.4375 269.3125 257.078125 C 267.96875 258.722656 266.582031 260.328125 265.15625 261.902344 C 263.726562 263.476562 262.265625 265.011719 260.761719 266.515625 C 259.261719 268.015625 257.722656 269.480469 256.152344 270.90625 C 254.578125 272.332031 252.96875 273.71875 251.328125 275.066406 C 249.6875 276.410156 248.011719 277.71875 246.308594 278.984375 C 244.601562 280.246094 242.867188 281.46875 241.101562 282.648438 C 239.335938 283.828125 237.542969 284.964844 235.722656 286.058594 C 233.898438 287.148438 232.050781 288.195312 230.179688 289.195312 C 228.308594 290.195312 226.410156 291.152344 224.492188 292.058594 C 222.570312 292.96875 220.632812 293.828125 218.667969 294.640625 C 216.707031 295.453125 214.726562 296.214844 212.726562 296.933594 C 210.726562 297.648438 208.710938 298.3125 206.679688 298.929688 C 204.648438 299.546875 202.601562 300.113281 200.542969 300.628906 C 198.484375 301.144531 196.410156 301.609375 194.328125 302.023438 C 192.246094 302.4375 190.15625 302.800781 188.054688 303.113281 C 185.953125 303.425781 183.847656 303.683594 181.734375 303.890625 C 179.621094 304.101562 177.503906 304.257812 175.382812 304.359375 C 173.261719 304.464844 171.140625 304.515625 169.015625 304.515625 C 166.894531 304.515625 164.769531 304.464844 162.648438 304.359375 C 160.527344 304.257812 158.410156 304.101562 156.296875 303.890625 C 154.183594 303.683594 152.078125 303.425781 149.976562 303.113281 C 147.878906 302.800781 145.785156 302.4375 143.703125 302.023438 C 141.621094 301.609375 139.550781 301.144531 137.488281 300.628906 C 135.429688 300.113281 133.382812 299.546875 131.351562 298.929688 C 129.320312 298.3125 127.304688 297.648438 125.304688 296.933594 C 123.304688 296.214844 121.324219 295.453125 119.363281 294.640625 C 117.402344 293.828125 115.460938 292.96875 113.539062 292.058594 C 111.621094 291.152344 109.726562 290.195312 107.851562 289.195312 C 105.980469 288.195312 104.132812 287.148438 102.3125 286.058594 C 100.488281 284.964844 98.695312 283.828125 96.929688 282.648438 C 95.164062 281.46875 93.429688 280.246094 91.722656 278.984375 C 90.019531 277.71875 88.34375 276.410156 86.703125 275.066406 C 85.0625 273.71875 83.453125 272.332031 81.882812 270.90625 C 80.308594 269.480469 78.769531 268.015625 77.269531 266.515625 C 75.765625 265.011719 74.304688 263.476562 72.878906 261.902344 C 71.453125 260.328125 70.066406 258.722656 68.71875 257.078125 C 67.371094 255.4375 66.066406 253.765625 64.800781 252.058594 C 63.535156 250.351562 62.3125 248.617188 61.132812 246.851562 C 59.953125 245.085938 58.816406 243.292969 57.726562 241.472656 C 56.632812 239.648438 55.585938 237.804688 54.585938 235.929688 C 53.585938 234.058594 52.632812 232.160156 51.722656 230.242188 C 50.816406 228.324219 49.957031 226.382812 49.144531 224.421875 C 48.328125 222.457031 47.566406 220.476562 46.851562 218.476562 C 46.136719 216.480469 45.46875 214.464844 44.851562 212.429688 C 44.238281 210.398438 43.671875 208.351562 43.15625 206.292969 C 42.636719 204.234375 42.171875 202.164062 41.757812 200.078125 C 41.34375 197.996094 40.980469 195.90625 40.671875 193.804688 C 40.359375 191.703125 40.097656 189.597656 39.890625 187.484375 C 39.683594 185.371094 39.527344 183.253906 39.421875 181.132812 C 39.316406 179.011719 39.265625 176.890625 39.265625 174.765625 C 39.265625 172.644531 39.316406 170.519531 39.421875 168.398438 C 39.527344 166.28125 39.683594 164.164062 39.890625 162.050781 C 40.097656 159.9375 40.359375 157.828125 40.671875 155.730469 C 40.980469 153.628906 41.34375 151.535156 41.757812 149.453125 C 42.171875 147.371094 42.636719 145.300781 43.15625 143.238281 C 43.671875 141.179688 44.238281 139.132812 44.851562 137.101562 C 45.46875 135.070312 46.136719 133.054688 46.851562 131.054688 C 47.566406 129.054688 48.328125 127.074219 49.144531 125.113281 C 49.957031 123.152344 50.816406 121.210938 51.722656 119.292969 C 52.632812 117.371094 53.585938 115.476562 54.585938 113.601562 C 55.585938 111.730469 56.632812 109.882812 57.726562 108.0625 C 58.816406 106.242188 59.953125 104.445312 61.132812 102.683594 C 62.3125 100.917969 63.535156 99.179688 64.800781 97.476562 C 66.066406 95.769531 67.371094 94.097656 68.71875 92.453125 C 70.066406 90.8125 71.453125 89.207031 72.878906 87.632812 C 74.304688 86.058594 75.765625 84.519531 77.269531 83.019531 C 78.769531 81.519531 80.308594 80.054688 81.882812 78.628906 C 83.453125 77.203125 85.0625 75.816406 86.703125 74.46875 C 88.34375 73.121094 90.019531 71.816406 91.722656 70.550781 C 93.429688 69.285156 95.164062 68.0625 96.929688 66.882812 C 98.695312 65.703125 100.488281 64.566406 102.3125 63.476562 C 104.132812 62.386719 105.980469 61.339844 107.851562 60.335938 C 109.726562 59.335938 111.621094 58.382812 113.539062 57.472656 C 115.460938 56.566406 117.402344 55.707031 119.363281 54.894531 C 121.324219 54.082031 123.304688 53.316406 125.304688 52.601562 C 127.304688 51.886719 129.320312 51.21875 131.351562 50.605469 C 133.382812 49.988281 135.429688 49.421875 137.488281 48.90625 C 139.550781 48.390625 141.621094 47.925781 143.703125 47.511719 C 145.785156 47.097656 147.878906 46.734375 149.976562 46.421875 C 152.078125 46.109375 154.183594 45.851562 156.296875 45.640625 C 158.410156 45.433594 160.527344 45.277344 162.648438 45.171875 C 164.769531 45.070312 166.894531 45.015625 169.015625 45.015625 C 171.140625 45.015625 173.261719 45.070312 175.382812 45.171875 C 177.503906 45.277344 179.621094 45.433594 181.734375 45.640625 C 183.847656 45.851562 185.953125 46.109375 188.054688 46.421875 C 190.15625 46.734375 192.246094 47.097656 194.328125 47.511719 C 196.410156 47.925781 198.484375 48.390625 200.542969 48.90625 C 202.601562 49.421875 204.648438 49.988281 206.679688 50.605469 C 208.710938 51.21875 210.726562 51.886719 212.726562 52.601562 C 214.726562 53.316406 216.707031 54.082031 218.667969 54.894531 C 220.632812 55.707031 222.570312 56.566406 224.492188 57.472656 C 226.410156 58.382812 228.308594 59.335938 230.179688 60.335938 C 232.050781 61.339844 233.898438 62.386719 235.722656 63.476562 C 237.542969 64.566406 239.335938 65.703125 241.101562 66.882812 C 242.867188 68.0625 244.601562 69.285156 246.308594 70.550781 C 248.011719 71.816406 249.6875 73.121094 251.328125 74.46875 C 252.96875 75.816406 254.578125 77.203125 256.152344 78.628906 C 257.722656 80.054688 259.261719 81.519531 260.761719 83.019531 C 262.265625 84.519531 263.726562 86.058594 265.15625 87.632812 C 266.582031 89.207031 267.96875 90.8125 269.3125 92.453125 C 270.660156 94.097656 271.96875 95.769531 273.230469 97.476562 C 274.496094 99.179688 275.71875 100.917969 276.898438 102.679688 C 278.078125 104.445312 279.214844 106.242188 280.304688 108.0625 C 281.398438 109.882812 282.445312 111.730469 283.445312 113.601562 C 284.445312 115.476562 285.402344 117.371094 286.308594 119.292969 C 287.214844 121.210938 288.078125 123.152344 288.890625 125.113281 C 289.703125 127.074219 290.464844 129.054688 291.179688 131.054688 C 291.898438 133.054688 292.5625 135.070312 293.179688 137.101562 C 293.796875 139.132812 294.363281 141.179688 294.878906 143.238281 C 295.394531 145.300781 295.859375 147.371094 296.273438 149.453125 C 296.6875 151.535156 297.050781 153.628906 297.363281 155.730469 C 297.671875 157.828125 297.933594 159.9375 298.140625 162.050781 C 298.347656 164.164062 298.503906 166.28125 298.609375 168.398438 C 298.714844 170.519531 298.765625 172.644531 298.765625 174.765625 Z M 298.765625 174.765625 " fill-opacity="1" fill-rule="nonzero"/></g><path fill="#000000" d="M 246.324219 214.683594 C 244.304688 208.964844 240.949219 203.71875 236.5625 199.546875 L 198.246094 162.90625 C 190.117188 155.125 179.453125 150.867188 168.230469 150.867188 C 168.144531 150.867188 168.101562 150.867188 168.015625 150.867188 C 156.703125 150.910156 145.996094 155.296875 137.910156 163.207031 L 99.9375 200.191406 C 95.59375 204.40625 92.285156 209.695312 90.304688 215.414062 L 89.445312 217.953125 C 85.359375 229.996094 87.425781 243.238281 94.949219 253.476562 L 98.21875 257.90625 C 105.613281 267.925781 117.226562 273.601562 129.308594 273.601562 C 132.320312 273.601562 135.375 273.257812 138.382812 272.527344 C 141.824219 271.707031 145.09375 270.417969 148.1875 268.699219 C 160.917969 261.601562 176.140625 261.558594 188.914062 268.527344 C 192.011719 270.203125 195.324219 271.449219 198.761719 272.269531 C 213.941406 275.75 229.640625 269.859375 238.800781 257.257812 L 242.023438 252.785156 C 249.464844 242.507812 251.398438 229.21875 247.230469 217.222656 Z M 236.347656 248.617188 L 233.125 253.089844 C 225.640625 263.410156 212.824219 268.226562 200.398438 265.34375 C 197.601562 264.699219 194.890625 263.667969 192.355469 262.289062 C 177.433594 254.164062 159.671875 254.25 144.792969 262.507812 C 142.253906 263.925781 139.589844 264.957031 136.792969 265.644531 C 124.40625 268.613281 111.507812 263.925781 103.9375 253.691406 L 100.667969 249.261719 C 94.476562 240.917969 92.800781 230.039062 96.152344 220.234375 L 97.015625 217.695312 C 98.605469 213.007812 101.3125 208.707031 104.882812 205.222656 L 142.855469 168.238281 C 149.953125 161.316406 159.113281 157.875 168.230469 157.875 C 177.261719 157.875 186.292969 161.273438 193.386719 168.023438 L 231.703125 204.664062 C 235.273438 208.105469 238.070312 212.363281 239.703125 217.050781 L 240.605469 219.585938 C 244.003906 229.347656 242.414062 240.1875 236.347656 248.617188 Z M 236.347656 248.617188 " fill-opacity="1" fill-rule="nonzero"/><path fill="#000000" d="M 104.625 182.429688 C 111.59375 179.078125 116.238281 172.152344 117.699219 162.992188 C 119.074219 154.304688 117.441406 144.5 113.054688 135.382812 C 108.667969 126.265625 102.003906 118.914062 94.347656 114.570312 C 86.261719 110.011719 77.960938 109.367188 70.996094 112.722656 C 64.03125 116.074219 59.386719 123 57.921875 132.160156 C 56.546875 140.847656 58.179688 150.652344 62.566406 159.769531 C 66.953125 168.886719 73.621094 176.238281 81.273438 180.582031 C 85.960938 183.207031 90.691406 184.539062 95.207031 184.539062 C 98.519531 184.539062 101.703125 183.851562 104.625 182.429688 Z M 68.890625 156.714844 C 65.105469 148.886719 63.683594 140.589844 64.847656 133.320312 C 65.921875 126.484375 69.191406 121.449219 74.007812 119.128906 C 75.941406 118.183594 78.09375 117.710938 80.328125 117.710938 C 83.640625 117.710938 87.207031 118.742188 90.820312 120.761719 C 97.273438 124.375 102.863281 130.652344 106.648438 138.480469 C 110.429688 146.308594 111.851562 154.609375 110.6875 161.875 C 109.613281 168.714844 106.347656 173.746094 101.53125 176.066406 C 96.710938 178.390625 90.734375 177.828125 84.714844 174.433594 C 78.308594 170.820312 72.671875 164.542969 68.890625 156.714844 Z M 68.890625 156.714844 " fill-opacity="1" fill-rule="nonzero"/><path fill="#000000" d="M 278.234375 133.148438 C 275.054688 124.417969 269.160156 118.570312 261.679688 116.589844 C 254.195312 114.613281 246.195312 116.847656 239.101562 122.871094 C 232.390625 128.589844 227.273438 137.105469 224.695312 146.867188 C 222.113281 156.628906 222.371094 166.5625 225.425781 174.863281 C 228.609375 183.59375 234.5 189.441406 241.980469 191.417969 C 243.746094 191.890625 245.550781 192.109375 247.402344 192.109375 C 253.25 192.109375 259.183594 189.742188 264.558594 185.140625 C 271.269531 179.421875 276.386719 170.90625 278.964844 161.144531 C 281.546875 151.382812 281.246094 141.449219 278.234375 133.148438 Z M 272.128906 159.339844 C 269.933594 167.722656 265.59375 174.992188 260 179.765625 C 254.753906 184.238281 248.992188 185.957031 243.789062 184.582031 C 238.585938 183.207031 234.457031 178.90625 232.046875 172.410156 C 229.511719 165.488281 229.339844 157.058594 231.53125 148.671875 C 233.726562 140.285156 238.070312 133.019531 243.660156 128.246094 C 247.746094 124.761719 252.132812 122.957031 256.304688 122.957031 C 257.507812 122.957031 258.710938 123.128906 259.871094 123.429688 C 265.074219 124.804688 269.203125 129.105469 271.613281 135.597656 C 274.148438 142.523438 274.320312 150.953125 272.128906 159.339844 Z M 272.128906 159.339844 " fill-opacity="1" fill-rule="nonzero"/><path fill="#000000" d="M 120.625 136.074219 C 126.472656 141.878906 133.179688 144.929688 139.890625 144.929688 C 141.265625 144.929688 142.640625 144.800781 144.019531 144.542969 C 152.058594 142.996094 158.683594 137.148438 162.640625 128.03125 C 166.421875 119.386719 167.371094 108.722656 165.304688 98.011719 C 163.242188 87.304688 158.425781 77.757812 151.714844 71.136719 C 144.75 64.125 136.40625 61.160156 128.363281 62.664062 C 120.367188 64.210938 113.742188 70.058594 109.742188 79.175781 C 105.957031 87.820312 105.011719 98.488281 107.078125 109.195312 C 109.097656 119.859375 113.914062 129.40625 120.625 136.074219 Z M 116.238281 82.015625 C 119.246094 75.09375 124.0625 70.707031 129.742188 69.628906 C 130.644531 69.457031 131.589844 69.371094 132.535156 69.371094 C 137.394531 69.371094 142.382812 71.738281 146.855469 76.167969 C 152.574219 81.800781 156.703125 90.058594 158.46875 99.347656 C 160.230469 108.636719 159.457031 117.839844 156.230469 125.191406 C 153.222656 132.117188 148.40625 136.503906 142.726562 137.578125 C 137.050781 138.652344 130.945312 136.332031 125.613281 131.039062 C 119.890625 125.40625 115.765625 117.152344 114 107.863281 C 112.195312 98.53125 113.011719 89.371094 116.238281 82.015625 Z M 116.238281 82.015625 " fill-opacity="1" fill-rule="nonzero"/><path fill="#000000" d="M 190.679688 144.84375 C 192.011719 145.101562 193.34375 145.234375 194.71875 145.234375 C 201.386719 145.234375 208.09375 142.007812 214.03125 135.816406 C 220.738281 128.847656 225.683594 118.828125 227.917969 107.644531 C 230.199219 96.464844 229.511719 85.328125 226.027344 76.253906 C 222.328125 66.707031 215.964844 60.554688 208.007812 58.921875 C 200.054688 57.332031 191.796875 60.511719 184.65625 67.910156 C 177.949219 74.878906 173.003906 84.898438 170.765625 96.078125 C 168.488281 107.257812 169.175781 118.398438 172.660156 127.472656 C 176.355469 137.0625 182.722656 143.210938 190.679688 144.84375 Z M 177.691406 97.496094 C 179.667969 87.605469 183.96875 78.832031 189.773438 72.8125 C 195.148438 67.222656 201.128906 64.726562 206.632812 65.847656 C 212.136719 66.964844 216.695312 71.566406 219.449219 78.789062 C 222.457031 86.574219 223.015625 96.335938 220.996094 106.226562 C 219.019531 116.117188 214.71875 124.890625 208.910156 130.910156 C 203.535156 136.503906 197.558594 138.996094 192.054688 137.878906 C 186.550781 136.761719 181.992188 132.160156 179.238281 124.933594 C 176.226562 117.152344 175.667969 107.429688 177.691406 97.496094 Z M 177.691406 97.496094 " fill-opacity="1" fill-rule="nonzero"/><path stroke-linecap="butt" transform="matrix(0.606253, 0.44154, -0.44154, 0.606253, 123.469273, 178.358748)" fill="none" stroke-linejoin="miter" d="M -0.00101521 1.999186 L 177.958121 2.002636 " stroke="#000000" stroke-width="4" stroke-opacity="1" stroke-miterlimit="4"/><path stroke-linecap="butt" transform="matrix(0.75, 0.00000000000000021, -0.00000000000000021, 0.75, 93.565112, 229.602964)" fill="none" stroke-linejoin="miter" d="M 0.00172573 1.998131 L 203.001739 1.998131 " stroke="#000000" stroke-width="4" stroke-opacity="1" stroke-miterlimit="4"/><path stroke-linecap="butt" transform="matrix(-0.562494, 0.496085, -0.496085, -0.562494, 225.446884, 201.135822)" fill="none" stroke-linejoin="miter" d="M 0.00236846 2.000516 L 58.021765 2.002865 " stroke="#000000" stroke-width="4" stroke-opacity="1" stroke-miterlimit="4"/><g clip-path="url(#14ded12704)"><g clip-path="url(#fe5e5164c2)"><path fill="#000000" d="M 184.996094 223.488281 L 196.71875 223.488281 L 196.71875 235.210938 L 184.996094 235.210938 Z M 184.996094 223.488281 " fill-opacity="1" fill-rule="nonzero"/></g></g><path stroke-linecap="butt" transform="matrix(0.733715, -0.155444, 0.155444, 0.733715, 130.362037, 217.577549)" fill="none" stroke-linejoin="miter" d="M -0.00189393 2.002184 L 50.304139 2.001458 " stroke="#000000" stroke-width="4" stroke-opacity="1" stroke-miterlimit="4"/><g clip-path="url(#2ffddd6525)"><g clip-path="url(#867e60f219)"><path fill="#000000" d="M 163.183594 206.039062 L 174.90625 206.039062 L 174.90625 217.761719 L 163.183594 217.761719 Z M 163.183594 206.039062 " fill-opacity="1" fill-rule="nonzero"/></g></g><g clip-path="url(#86a42af51e)"><g clip-path="url(#4b01a0dfa0)"><path fill="#000000" d="M 87.703125 222.886719 L 99.425781 222.886719 L 99.425781 234.609375 L 87.703125 234.609375 Z M 87.703125 222.886719 " fill-opacity="1" fill-rule="nonzero"/></g></g><path stroke-linecap="butt" transform="matrix(0.178161, 0.728532, -0.728532, 0.178161, 156.054954, 154.470297)" fill="none" stroke-linejoin="miter" d="M 0.00187656 2.000781 L 73.844848 2.000338 " stroke="#000000" stroke-width="4" stroke-opacity="1" stroke-miterlimit="4"/><path stroke-linecap="butt" transform="matrix(-0.393694, 0.638361, -0.638361, -0.393694, 198.144411, 167.328769)" fill="none" stroke-linejoin="miter" d="M 0.00215169 1.999458 L 66.829044 1.998323 " stroke="#000000" stroke-width="4" stroke-opacity="1" stroke-miterlimit="4"/><g clip-path="url(#ff96e354b0)"><g clip-path="url(#378fed769d)"><path fill="#000000" d="M 150.027344 153.613281 L 161.75 153.613281 L 161.75 165.335938 L 150.027344 165.335938 Z M 150.027344 153.613281 " fill-opacity="1" fill-rule="nonzero"/></g></g><path stroke-linecap="butt" transform="matrix(0.418512, 0.622372, -0.622372, 0.418512, 112.567344, 196.050412)" fill="none" stroke-linejoin="miter" d="M 0.000411523 1.997673 L 98.433039 1.99758 " stroke="#000000" stroke-width="4" stroke-opacity="1" stroke-miterlimit="4"/><g clip-path="url(#bd22d977ab)"><g clip-path="url(#8a375066b3)"><path fill="#000000" d="M 121.035156 214.289062 L 132.757812 214.289062 L 132.757812 226.011719 L 121.035156 226.011719 Z M 121.035156 214.289062 " fill-opacity="1" fill-rule="nonzero"/></g></g><g clip-path="url(#f2105036ef)"><g clip-path="url(#d63a18b23b)"><path fill="#000000" d="M 189.507812 163.074219 L 201.230469 163.074219 L 201.230469 174.796875 L 189.507812 174.796875 Z M 189.507812 163.074219 " fill-opacity="1" fill-rule="nonzero"/></g></g><g clip-path="url(#21f13c3974)"><g clip-path="url(#7f33de4e7c)"><path fill="#000000" d="M 218.753906 193.074219 L 230.476562 193.074219 L 230.476562 204.796875 L 218.753906 204.796875 Z M 218.753906 193.074219 " fill-opacity="1" fill-rule="nonzero"/></g></g><path stroke-linecap="butt" transform="matrix(0.425872, -0.61736, 0.61736, 0.425872, 154.653614, 230.249385)" fill="none" stroke-linejoin="miter" d="M -0.00169755 1.998557 L 36.146484 1.998603 " stroke="#000000" stroke-width="4" stroke-opacity="1" stroke-miterlimit="4"/><g clip-path="url(#6b83eba11b)"><g clip-path="url(#aef740ef32)"><path fill="#000000" d="M 148.742188 225.242188 L 160.464844 225.242188 L 160.464844 236.964844 L 148.742188 236.964844 Z M 148.742188 225.242188 " fill-opacity="1" fill-rule="nonzero"/></g></g><g clip-path="url(#de3b1f8311)"><g clip-path="url(#b79e4fef33)"><path fill="#000000" d="M 146.660156 250.742188 L 158.382812 250.742188 L 158.382812 262.464844 L 146.660156 262.464844 Z M 146.660156 250.742188 " fill-opacity="1" fill-rule="nonzero"/></g></g><path stroke-linecap="butt" transform="matrix(-0.734822, 0.150123, -0.150123, -0.734822, 230.771709, 200.406037)" fill="none" stroke-linejoin="miter" d="M -0.00126329 1.998236 L 81.299776 2.000965 " stroke="#000000" stroke-width="4" stroke-opacity="1" stroke-miterlimit="4"/><path stroke-linecap="butt" transform="matrix(0.0549639, -0.747983, 0.747983, 0.0549639, 151.022764, 262.353235)" fill="none" stroke-linejoin="miter" d="M -0.00215741 2.001229 L 43.348798 2.001331 " stroke="#000000" stroke-width="4" stroke-opacity="1" stroke-miterlimit="4"/><path stroke-linecap="butt" transform="matrix(0.134633, -0.737817, 0.737817, 0.134633, 183.515618, 262.190284)" fill="none" stroke-linejoin="miter" d="M -0.00159443 2.001559 L 42.358395 2.001634 " stroke="#000000" stroke-width="4" stroke-opacity="1" stroke-miterlimit="4"/><g clip-path="url(#eb906e50f9)"><g clip-path="url(#4aae9f525f)"><path fill="#000000" d="M 179.132812 253.808594 L 190.855469 253.808594 L 190.855469 265.53125 L 179.132812 265.53125 Z M 179.132812 253.808594 " fill-opacity="1" fill-rule="nonzero"/></g></g><g clip-path="url(#a1318f0dda)"><g clip-path="url(#fac47c5231)"><path fill="#000000" d="M 224.457031 250.742188 L 236.179688 250.742188 L 236.179688 262.464844 L 224.457031 262.464844 Z M 224.457031 250.742188 " fill-opacity="1" fill-rule="nonzero"/></g></g><path stroke-linecap="butt" transform="matrix(0.733715, -0.155444, 0.155444, 0.733715, 87.703674, 227.10599)" fill="none" stroke-linejoin="miter" d="M 0.00116518 2.001337 L 50.307199 2.000611 " stroke="#000000" stroke-width="4" stroke-opacity="1" stroke-miterlimit="4"/><path stroke-linecap="butt" transform="matrix(-0.30573, 0.684857, -0.684857, -0.30573, 127.564391, 221.216119)" fill="none" stroke-linejoin="miter" d="M 0.000641275 1.998786 L 65.610606 1.998252 " stroke="#000000" stroke-width="4" stroke-opacity="1" stroke-miterlimit="4"/><g clip-path="url(#bf897195fc)"><g clip-path="url(#7fc9b39c58)"><path fill="#000000" d="M 102.683594 252.285156 L 114.40625 252.285156 L 114.40625 264.007812 L 102.683594 264.007812 Z M 102.683594 252.285156 " fill-opacity="1" fill-rule="nonzero"/></g></g><g clip-path="url(#9d2e7ea46b)"><g clip-path="url(#093f5f1bce)"><path fill="#000000" d="M 236.179688 225.351562 L 247.902344 225.351562 L 247.902344 237.074219 L 236.179688 237.074219 Z M 236.179688 225.351562 " fill-opacity="1" fill-rule="nonzero"/></g></g><g clip-path="url(#ccb50d972e)"><g clip-path="url(#49d3ca3ab8)"><path fill="#000000" d="M 120.628906 176.898438 L 132.351562 176.898438 L 132.351562 188.621094 L 120.628906 188.621094 Z M 120.628906 176.898438 " fill-opacity="1" fill-rule="nonzero"/></g></g><g clip-path="url(#2d48c07334)"><g clip-path="url(#7c2011b9bb)"><path fill="#000000" d="M 105.464844 193.074219 L 117.1875 193.074219 L 117.1875 204.796875 L 105.464844 204.796875 Z M 105.464844 193.074219 " fill-opacity="1" fill-rule="nonzero"/></g></g></svg>